<svg height="542" width="720" xmlns="http://www.w3.org/2000/svg">
<rect height="542" fill="#555" width="720"></rect>
<text fill="#7f7" font-family="Courier New" font-size="12" xml:space="preserve">
<tspan x="10" y="26">3 megabytes installed</tspan>
<tspan x="10" y="42"></tspan>
<tspan x="10" y="58">node_modules</tspan>
<tspan x="10" y="74">└─┬ crapify@1.2.0 </tspan>
<tspan x="10" y="90">  ├─┬ chalk@0.5.1 </tspan>
<tspan x="10" y="106">  │ ├── ansi-styles@1.1.0 </tspan>
<tspan x="10" y="122">  │ ├── escape-string-regexp@1.0.5 </tspan>
<tspan x="10" y="138">  │ ├─┬ has-ansi@0.1.0 </tspan>
<tspan x="10" y="154">  │ │ └── ansi-regex@0.2.1 </tspan>
<tspan x="10" y="170">  │ ├── strip-ansi@0.3.0 </tspan>
<tspan x="10" y="186">  │ └── supports-color@0.2.0 </tspan>
<tspan x="10" y="202">  ├── lodash@2.4.2 </tspan>
<tspan x="10" y="218">  ├─┬ monkey-proxy@1.2.0 </tspan>
<tspan x="10" y="234">  │ ├── async@0.9.2 </tspan>
<tspan x="10" y="250">  │ ├── basic-auth-parser@0.0.2 </tspan>
<tspan x="10" y="266">  │ ├── commander@2.2.0 </tspan>
<tspan x="10" y="282">  │ ├── debug@0.8.0 </tspan>
<tspan x="10" y="298">  │ └─┬ once@1.4.0 </tspan>
<tspan x="10" y="314">  │   └── wrappy@1.0.2 </tspan>
<tspan x="10" y="330">  ├─┬ throttle@1.0.3 </tspan>
<tspan x="10" y="346">  │ ├─┬ readable-stream@2.2.9 </tspan>
<tspan x="10" y="362">  │ │ ├── buffer-shims@1.0.0 </tspan>
<tspan x="10" y="378">  │ │ ├── core-util-is@1.0.2 </tspan>
<tspan x="10" y="394">  │ │ ├── inherits@2.0.3 </tspan>
<tspan x="10" y="410">  │ │ ├── isarray@1.0.0 </tspan>
<tspan x="10" y="426">  │ │ ├── process-nextick-args@1.0.7 </tspan>
<tspan x="10" y="442">  │ │ ├── string_decoder@1.0.0 </tspan>
<tspan x="10" y="458">  │ │ └── util-deprecate@1.0.2 </tspan>
<tspan x="10" y="474">  │ └─┬ stream-parser@0.3.1 </tspan>
<tspan x="10" y="490">  │   └─┬ debug@2.6.5 </tspan>
<tspan x="10" y="506">  │     └── ms@0.7.3 </tspan>
<tspan x="10" y="522">  └── yargs@1.3.3</tspan>
</text>
</svg>
